<svg xmlns="http://www.w3.org/2000/svg" xmlns:svg="http://www.w3.org/2000/svg" width="1304" height="250" viewBox="0 0 1304 250" id="svg1" xml:space="preserve"><defs id="defs1"></defs><g id="layer1"><g id="text2" style="font-weight:bold;font-size:207.089px;font-family:'Helvetica Neue';-inkscape-font-specification:'Helvetica Neue Bold';letter-spacing:3.97999px;stroke:#000000;stroke-width:8.08941" aria-label="UpperMatch"><path style="font-weight:normal;-inkscape-font-specification:'Helvetica Neue';fill:#000;fill-opacity:1;stroke:#000;stroke-opacity:1" d="M 144.8004,138.3401 V 43.907509 H 125.12695 V 138.3401 q 0,19.88054 -9.94028,30.23499 -9.73318,10.14736 -28.57828,10.14736 -19.880544,0 -30.442083,-10.14736 -10.56154,-10.35445 -10.56154,-30.23499 V 43.907509 H 25.931312 V 138.3401 q 0,29.61372 15.945853,43.2816 16.152943,13.46078 44.731225,13.46078 27.95702,0 43.07451,-14.08205 15.1175,-14.28914 15.1175,-42.66033 z M 177.97958,84.704043 V 232.56559 h 17.60257 v -55.08567 h 0.41418 q 2.89924,4.76304 7.04102,8.07647 4.34887,3.10633 9.11192,4.97013 4.76305,1.86381 9.52609,2.69216 4.97014,0.82836 8.90483,0.82836 12.21825,0 21.33017,-4.34887 9.319,-4.34887 15.32458,-11.80408 6.21267,-7.66229 9.11192,-17.80965 3.10634,-10.14736 3.10634,-21.53726 0,-11.38989 -3.10634,-21.53725 -3.10633,-10.14736 -9.319,-17.809657 -6.00559,-7.869382 -15.32459,-12.42534 -9.11192,-4.555958 -21.53726,-4.555958 -11.1828,0 -20.50181,4.14178 -9.319,3.934691 -13.66787,12.839518 h -0.41418 v -14.49623 z m 82.83561,52.600607 q 0,7.86938 -1.65672,15.32459 -1.65671,7.4552 -5.38431,13.25369 -3.7276,5.79849 -9.94027,9.31901 -6.00558,3.52051 -15.1175,3.52051 -9.11192,0 -15.53168,-3.31342 -6.41976,-3.52052 -10.56154,-9.11192 -3.93469,-5.5914 -5.79849,-12.83952 -1.8638,-7.4552 -1.8638,-15.32458 0,-7.45521 1.65671,-14.70332 1.8638,-7.24812 5.7985,-12.83952 3.93469,-5.79849 10.14736,-9.31901 6.21267,-3.52051 15.11749,-3.52051 8.49065,0 14.70332,3.31342 6.41976,3.31343 10.35445,8.90483 4.14178,5.5914 6.00559,12.83952 2.07089,7.04103 2.07089,14.49623 z M 304.76303,84.704043 V 232.56559 h 17.60257 v -55.08567 h 0.41417 q 2.89925,4.76304 7.04103,8.07647 4.34887,3.10633 9.11192,4.97013 4.76304,1.86381 9.52609,2.69216 4.97014,0.82836 8.90483,0.82836 12.21825,0 21.33017,-4.34887 9.319,-4.34887 15.32458,-11.80408 6.21267,-7.66229 9.11192,-17.80965 3.10633,-10.14736 3.10633,-21.53726 0,-11.38989 -3.10633,-21.53725 -3.10634,-10.14736 -9.31901,-17.809657 -6.00558,-7.869382 -15.32458,-12.42534 -9.11192,-4.555958 -21.53726,-4.555958 -11.18281,0 -20.50181,4.14178 -9.31901,3.934691 -13.66788,12.839518 h -0.41417 v -14.49623 z m 82.8356,52.600607 q 0,7.86938 -1.65671,15.32459 -1.65671,7.4552 -5.38431,13.25369 -3.72761,5.79849 -9.94028,9.31901 -6.00558,3.52051 -15.11749,3.52051 -9.11192,0 -15.53168,-3.31342 -6.41976,-3.52052 -10.56154,-9.11192 -3.93469,-5.5914 -5.79849,-12.83952 -1.8638,-7.4552 -1.8638,-15.32458 0,-7.45521 1.65671,-14.70332 1.8638,-7.24812 5.79849,-12.83952 3.93469,-5.79849 10.14736,-9.31901 6.21267,-3.52051 15.1175,-3.52051 8.49065,0 14.70332,3.31342 6.41976,3.31343 10.35445,8.90483 4.14178,5.5914 6.00558,12.83952 2.07089,7.04103 2.07089,14.49623 z m 117.67153,-9.31901 h -61.50543 q 0.41418,-6.21267 2.69216,-11.59698 2.27798,-5.5914 6.21267,-9.73318 3.93469,-4.14178 9.319,-6.41976 5.5914,-2.48507 12.42534,-2.48507 6.62685,0 12.01116,2.48507 5.59141,2.27798 9.5261,6.41976 4.14178,3.93469 6.41976,9.52609 2.48507,5.5914 2.89924,11.80407 z m 16.9813,29.82082 h -17.39547 q -2.27798,10.56154 -9.5261,15.73877 -7.04102,5.17722 -18.22383,5.17722 -8.69774,0 -15.1175,-2.89925 -6.41976,-2.89924 -10.56154,-7.66229 -4.14178,-4.97013 -6.00558,-11.1828 -1.8638,-6.41976 -1.65671,-13.46079 h 80.14344 q 0.41418,-9.73318 -1.8638,-20.50181 -2.07089,-10.76863 -7.86938,-19.88055 -5.5914,-9.111912 -15.1175,-14.910404 -9.319,-6.005581 -23.60814,-6.005581 -10.97572,0 -20.29473,4.14178 -9.11191,4.14178 -15.94585,11.596984 -6.62685,7.455201 -10.35445,17.602561 -3.7276,10.14737 -3.7276,22.36562 0.41418,12.21825 3.52051,22.5727 3.31343,10.35445 9.73318,17.80965 6.41976,7.45521 15.73877,11.59699 9.52609,4.14178 22.36561,4.14178 18.22383,0 30.235,-9.11192 12.01116,-9.11192 15.53167,-27.12866 z" id="path1"></path><path style="letter-spacing:0px;fill:#000;fill-opacity:1;stroke:#000;stroke-opacity:1" d="M 545.4905,84.704043 V 191.76906 h 17.60256 v -47.63047 q 0,-10.35445 2.07089,-18.22384 2.07089,-8.07647 6.62685,-13.66787 4.55596,-5.5914 12.01116,-8.49065 7.45521,-2.89924 18.01675,-2.89924 V 82.218975 q -14.28914,-0.414178 -23.60815,5.798492 -9.319,6.21267 -15.73876,19.259273 h -0.41418 V 84.704043 Z" id="path2"></path><path style="letter-spacing:0px;fill:#000;fill-opacity:1;stroke:#000;stroke-opacity:1" d="M 628.80749,43.907509 V 191.76906 h 30.44208 V 88.017467 h 0.41418 L 695.90433,191.76906 H 720.9621 L 757.20267,86.982022 h 0.41418 V 191.76906 h 30.44208 V 43.907509 H 742.29226 L 709.5722,145.58821 h -0.41418 L 674.57416,43.907509 Z m 179.88074,73.723681 q 0.62127,-10.35445 5.17723,-17.18838 4.55596,-6.83394 11.59698,-10.97572 7.04103,-4.14178 15.73877,-5.798492 8.90482,-1.863801 17.80965,-1.863801 8.07647,0 16.36003,1.242534 8.28356,1.035445 15.1175,4.348869 6.83394,3.313424 11.18281,9.319005 4.34887,5.798495 4.34887,15.531675 v 55.70694 q 0,7.24812 0.82835,13.87497 0.82836,6.62684 2.89925,9.94027 h -29.82082 q -0.82836,-2.48507 -1.44962,-4.97014 -0.41418,-2.69215 -0.62127,-5.38431 -7.04103,7.24811 -16.56712,10.14736 -9.52609,2.89925 -19.46637,2.89925 -7.66229,0 -14.28914,-1.86381 -6.62685,-1.8638 -11.59698,-5.79849 -4.97014,-3.93469 -7.86938,-9.94027 -2.69216,-6.00558 -2.69216,-14.28914 0,-9.11192 3.10633,-14.91041 3.31343,-6.00558 8.28356,-9.52609 5.17723,-3.52052 11.59699,-5.17723 6.62685,-1.8638 13.25369,-2.89925 6.62685,-1.03544 13.04661,-1.65671 6.41976,-0.62126 11.3899,-1.8638 4.97013,-1.24253 7.86938,-3.52051 2.89925,-2.48507 2.69216,-7.04103 0,-4.76304 -1.65672,-7.4552 -1.44962,-2.89925 -4.14178,-4.34887 -2.48506,-1.65671 -6.00558,-2.07089 -3.31342,-0.62127 -7.24811,-0.62127 -8.69774,0 -13.66788,3.7276 -4.97013,3.72761 -5.79849,12.42534 z m 67.9252,21.74435 q -1.8638,1.65671 -4.76305,2.69216 -2.69216,0.82835 -6.00558,1.44962 -3.10634,0.62127 -6.62685,1.03545 -3.52051,0.41417 -7.04103,1.03544 -3.31342,0.62127 -6.62684,1.65671 -3.10634,1.03545 -5.59141,2.89925 -2.27798,1.65671 -3.7276,4.34887 -1.44962,2.69215 -1.44962,6.83393 0,3.9347 1.44962,6.62685 1.44962,2.69216 3.93469,4.34887 2.48507,1.44962 5.79849,2.07089 3.31343,0.62127 6.83394,0.62127 8.69774,0 13.46079,-2.89925 4.76304,-2.89924 7.04102,-6.83393 2.27798,-4.14178 2.69216,-8.28356 0.62127,-4.14178 0.62127,-6.62685 z M 966.07575,84.704043 V 52.605247 H 936.66911 V 84.704043 H 918.85945 V 104.3775 h 17.80966 v 63.16214 q 0,8.07648 2.69215,13.04661 2.69216,4.97014 7.24812,7.6623 4.76305,2.69215 10.76863,3.52051 6.21267,1.03544 13.0466,1.03544 4.34887,0 8.90483,-0.20709 4.55596,-0.20708 8.28356,-0.82835 v -22.77979 q -2.07089,0.41418 -4.34887,0.62126 -2.27798,0.20709 -4.76304,0.20709 -7.45521,0 -9.94028,-2.48506 -2.48506,-2.48507 -2.48506,-9.94028 V 104.3775 H 987.613 V 84.704043 Z m 108.51455,37.690197 h 28.7853 q -0.6212,-10.35445 -4.9701,-17.80965 -4.3489,-7.662296 -11.3899,-12.632432 -6.8339,-5.177225 -15.7388,-7.662293 -8.6977,-2.485068 -18.2238,-2.485068 -13.0466,0 -23.194,4.348869 -10.1473,4.348869 -17.1884,12.218251 -7.041,7.662293 -10.7686,18.430923 -3.5205,10.56154 -3.5205,22.98688 0,12.01116 3.9347,22.15852 3.9347,9.94027 10.9757,17.18839 7.041,7.24811 16.9813,11.38989 10.1474,3.9347 22.1585,3.9347 21.3302,0 34.9981,-11.18281 13.6678,-11.18281 16.5671,-32.51297 h -28.3712 q -1.4496,9.94027 -7.2481,15.94585 -5.5914,5.79849 -16.153,5.79849 -6.8339,0 -11.5969,-3.10633 -4.7631,-3.10634 -7.6623,-7.86939 -2.6922,-4.97013 -3.9347,-10.97571 -1.2426,-6.00558 -1.2426,-11.80408 0,-6.00558 1.2426,-12.01116 1.2425,-6.21267 4.1418,-11.18281 3.1063,-5.17722 7.8693,-8.28356 4.7631,-3.31342 11.8041,-3.31342 18.8451,0 21.7444,18.43092 z m 45.9736,-78.486731 V 191.76906 h 29.4067 v -56.12112 q 0,-16.36003 5.3843,-23.40106 5.3843,-7.24811 17.3955,-7.24811 10.5615,0 14.7033,6.62684 4.1418,6.41976 4.1418,19.67346 v 60.46999 h 29.4066 v -65.85431 q 0,-9.94027 -1.8638,-18.01674 -1.6567,-8.283559 -6.0056,-13.874962 -4.3488,-5.798492 -12.0111,-8.904827 -7.4552,-3.313424 -19.2593,-3.313424 -8.2836,0 -16.9813,4.348869 -8.6977,4.14178 -14.2891,13.460785 h -0.6213 V 43.907509 Z" id="path3"></path></g><path d="m 1263.1596,40.639838 h 4.2549 q 2.4584,0 4.2549,0.693391 1.8281,0.787944 1.8911,3.151777 -0.063,2.521422 -2.1432,3.246331 -2.1117,0.630356 -5.0428,0.56732 h -3.2149 z m -4.6331,22.976457 h 4.6331 V 52.553557 h 2.6475 l 7.8164,11.062738 h 5.4211 l -7.8164,-11.18881 q 2.9627,-0.315177 4.9798,-2.11169 1.9226,-1.828031 1.9856,-5.830789 0,-8.194621 -9.3608,-8.131585 h -10.3063 z m -14.5297,-12.985323 q 0.1261,9.928099 6.9024,16.452278 6.5242,6.776322 16.4523,6.902393 9.9596,-0.126071 16.5784,-6.902393 6.6502,-6.524179 6.7763,-16.452278 -0.1261,-9.928098 -6.7763,-16.578349 -6.6188,-6.65025 -16.5784,-6.776321 -9.9281,0.126071 -16.4523,6.776321 -6.7763,6.650251 -6.9024,16.578349 z m 5.0429,0 q 0.063,-8.383727 5.2635,-13.489607 5.0428,-5.168915 13.0483,-5.23195 8.0686,0.06303 13.1744,5.23195 5.1059,5.10588 5.169,13.489607 -0.063,8.257657 -5.169,13.363536 -5.1058,5.294986 -13.1744,5.358022 -8.0055,-0.06304 -13.0483,-5.358022 -5.2005,-5.105879 -5.2635,-13.363536 z" id="text3" style="font-weight:bold;font-size:64.5484px;font-family:'DIN Alternate';-inkscape-font-specification:'DIN Alternate Bold';letter-spacing:1.24054px;stroke:#000;stroke-width:0.650087;fill:#000;fill-opacity:1;stroke-opacity:1" aria-label="®"></path></g></svg>